<?xml version="1.0" encoding="UTF-8"?><svg xmlns="http://www.w3.org/2000/svg" viewBox="0 0 2551.36 2547.56"><g id="a"><rect x="28.76" y="46.14" width="2482.36" height="2482.36" rx="370.12" ry="370.12" style="stroke:#00ff04; stroke-miterlimit:10;"/></g><g id="b"><rect x="211.76" y="229.32" width="1029.21" height="1029.21" rx="319.77" ry="319.77" style="fill:#f60; stroke:#00ff04; stroke-miterlimit:10;"/></g><g id="c"><rect x="1299.91" y="203.71" width="1029.21" height="1029.21" rx="319.77" ry="319.77" style="fill:red; stroke:#00ff04; stroke-miterlimit:10;"/></g><g id="d"><rect x="1320.21" y="1326.32" width="1029.21" height="1029.21" rx="319.77" ry="319.77" style="fill:#0c0; stroke:#00ff04; stroke-miterlimit:10;"/></g><g id="e"><rect x="211.76" y="1326.32" width="1029.21" height="1029.21" rx="319.77" ry="319.77" style="fill:#30f; stroke:#00ff04; stroke-miterlimit:10;"/></g><g id="f"><rect x="255.13" y="271.01" width="2021.41" height="2021.41" rx="395.98" ry="395.98" transform="translate(1277.07 -519.67) rotate(45)" style="fill:#33ac89; stroke:#00ff04; stroke-miterlimit:10;"/></g><g id="g"><g><path d="M1035.42,1596.64l-149.97-556.05-151.88,556.05c-11.81,42.19-21.2,72.44-28.16,90.78-6.97,18.34-19.09,34.8-36.39,49.34s-40.28,21.83-68.97,21.83c-23.2,0-42.3-4.33-57.27-12.98s-27.09-20.89-36.38-36.72-16.88-34.61-22.78-56.36-11.19-41.91-15.83-60.48l-154.39-625.02c-9.28-36.3-13.92-63.95-13.92-82.95,0-24.06,8.44-44.31,25.31-60.78s37.75-24.7,62.64-24.7c34.16,0,57.16,10.98,68.97,32.95s22.14,53.86,31.02,95.67l121.48,542.38,136.05-507.53c10.12-38.84,19.19-68.41,27.2-88.69s21.09-37.81,39.23-52.59,42.83-22.19,74.05-22.19,56.2,7.72,73.7,23.12c17.5,15.42,29.64,32.22,36.39,50.38,6.75,18.17,15.81,48.16,27.22,89.97l137.31,507.53,121.48-542.38c5.91-28.3,11.48-50.47,16.77-66.53,5.28-16.05,14.34-30.41,27.22-43.08,12.86-12.67,31.53-19.02,56-19.02s45.23,8.14,62.33,24.39c17.08,16.25,25.62,36.62,25.62,61.09,0,17.31-4.64,44.97-13.92,82.95l-154.39,625.02c-10.56,42.22-19.31,73.16-26.27,92.78-6.97,19.62-18.78,36.83-35.44,51.61-16.67,14.77-40.19,22.16-70.55,22.16-28.69,0-51.69-7.17-68.98-21.5-17.3-14.34-29.31-30.47-36.06-48.39s-16.25-48.61-28.47-92.06Z" style="fill:#fff;"/><path d="M1778.13,912.63v675.97h380.95c30.38,0,53.67,7.38,69.92,22.09,16.23,14.73,24.36,33.25,24.36,55.53s-8.02,41.14-24.05,55.23-39.45,21.14-70.23,21.14h-453.75c-40.94,0-70.36-9.06-88.3-27.22s-26.91-47.48-26.91-88.02V912.56c0-37.98,8.53-66.47,25.62-85.47s39.56-28.5,67.42-28.5,51.17,9.41,68.69,28.2c17.5,18.8,26.27,47.41,26.27,85.83Z" style="fill:#fff;"/></g></g></svg>